<?xml version="1.0" encoding="UTF-8" standalone="no"?><!DOCTYPE svg PUBLIC "-//W3C//DTD SVG 1.1//EN" "http://www.w3.org/Graphics/SVG/1.1/DTD/svg11.dtd"><svg width="100%" height="100%" viewBox="0 0 6 6" version="1.1" xmlns="http://www.w3.org/2000/svg" xmlns:xlink="http://www.w3.org/1999/xlink" xml:space="preserve" xmlns:serif="http://www.serif.com/" style="fill-rule:evenodd;clip-rule:evenodd;stroke-linejoin:round;stroke-miterlimit:2;"><path d="M0,4l0,-2l1,0l-0,2l-1,0Zm1,-2l0,-1l1,0l0,1l-1,0Zm1,-1l0,-1l2,0l0,1l-2,0Zm2,0l1,0l0,1l-1,0l0,-1Zm1,1l1,0l0,2l-1,0l0,-2Zm0,2l0,1l-1,0l0,-1l1,0Zm-1,1l0,1l-2,0l0,-1l2,0Zm-2,0l-1,0l-0,-1l1,0l0,1Z" style="fill:#f25e0d;"/></svg>